<?xml version="1.0" encoding="utf-8"?>
<!-- Generator: Adobe Illustrator 16.0.0, SVG Export Plug-In . SVG Version: 6.00 Build 0)  -->
<!DOCTYPE svg PUBLIC "-//W3C//DTD SVG 1.1//EN" "http://www.w3.org/Graphics/SVG/1.1/DTD/svg11.dtd">
<svg version="1.1" xmlns="http://www.w3.org/2000/svg" xmlns:xlink="http://www.w3.org/1999/xlink" x="0px" y="0px" width="480px"
	 height="395.208px" viewBox="0 0 480 395.208" enable-background="new 0 0 480 395.208" xml:space="preserve">
<g id="レイヤー_1" display="none">
</g>
<g id="レイヤー_3" display="none" opacity="0.3">
	<rect x="-58.562" y="-43.152" display="inline" width="616" height="477"/>
</g>
<g id="レイヤー_6">
	<rect x="74.227" y="54.75" display="none" fill="#FFFFFF" width="321.206" height="264.464"/>
	<path fill="none" stroke="#2EA7E0" stroke-width="17" stroke-miterlimit="10" d="M-36.562,174.182l56.939-6.244
		c22.328-3.94,124.116-42.685,144.016-49.909c19.126-6.942,17.671-8.379,184.332-104.415c15.213-8.766,57.88-35.266,57.88-35.266"/>
</g>
<g id="道">
	<path fill="none" stroke="#FFFFFF" stroke-width="15" stroke-miterlimit="10" d="M141.714,406.348
		c8.275-18.5,12.725-29,31.017-72.266c2.608-6.169,12.478-151.697,9.85-162.205c-1.313-5.256-10.022-32.369-18.481-61.197
		c-8.45-28.8-16.196-59.333-16.979-71.456c-1.015-15.71,5.11-67.158,5.11-67.158"/>
	<path fill="none" stroke="#FFFFFF" stroke-width="15" stroke-miterlimit="10" d="M177.366,154.744
		c5.722,17.17-14.375,70.983-27.2,80.506c-12.825,9.521-43.104,63.371-43.104,87.997l20.265,115.602"/>
	<path fill="none" stroke="#FFFFFF" stroke-width="5" stroke-miterlimit="10" d="M519.44,174.182l-69.939,47.605
		c-15.605,12.041-70.779,32.59-138.951,47.855c-54.523,12.211-117.338,19.877-174.918,19.443
		c-31.526-0.237-190.193,0.939-194.193,0.018"/>
	<path fill="none" stroke="#FFFFFF" stroke-width="5" stroke-miterlimit="10" d="M180.933,226.623c0,0,7.813-9.349,15.94-11.895
		c8.127-2.544,54.751-5.513,70.577-5.089c15.826,0.425,75.709-54.404,78.063-52.65c2.353,1.754-5.026-8-5.026-8l12.939-31.808
		l13.688-12.723"/>
	<path fill="none" stroke="#FFFFFF" stroke-width="5" stroke-miterlimit="10" d="M530.772,56.182l-131.699,98.562
		c-1.313-2.688-18.826-41.092-31.96-50.285c-13.134-9.194-49.033-74.426-51.223-87.56l-9.802-44.832"/>
	<path fill="none" stroke="#FFFFFF" stroke-width="15" stroke-miterlimit="10" d="M336.646,60.825
		c-29.948,14.738-74.166,39.693-74.166,39.693s-25.393,24.078-31.96,25.392c-6.566,1.313-49.587,14.009-49.587,14.009l-3.222,9.194
		l-2.277-0.899"/>
	<polyline fill="none" stroke="#FFFFFF" stroke-width="5" stroke-miterlimit="10" points="286.284,87.318 315.891,150.864 
		315.891,157.916 327.807,180.311 360.027,257.075 	"/>
	
		<line fill="none" stroke="#FFFFFF" stroke-width="5" stroke-miterlimit="10" x1="258.511" y1="276.795" x2="253.745" y2="209.313"/>
	
		<line fill="none" stroke="#FFFFFF" stroke-width="5" stroke-miterlimit="10" x1="288.017" y1="200.815" x2="293.057" y2="272.602"/>
	<polyline fill="none" stroke="#FFFFFF" stroke-width="5" stroke-miterlimit="10" points="269.485,209.092 253.745,167.938 
		256.128,157.916 240.731,119.525 	"/>
	<polyline fill="none" stroke="#FFFFFF" stroke-width="5" stroke-miterlimit="10" points="199.683,134.442 293.057,169.798 
		297.504,160.496 315.891,152.12 	"/>
	<polyline fill="none" stroke="#FFFFFF" stroke-width="5" stroke-miterlimit="10" points="-42.562,165.541 24.938,157.848 
		164.1,110.681 317.343,21.859 363.438,-7.511 	"/>
	<polyline fill="none" stroke="#FFFFFF" stroke-width="5" stroke-miterlimit="10" points="-36.562,186.348 25.438,177.848 
		169.372,128.103 326.536,40.007 411.938,-14.652 	"/>
	<line fill="none" stroke="#FFFFFF" stroke-width="5" stroke-miterlimit="10" x1="326.536" y1="-9.815" x2="-10.562" y2="44.224"/>
	<path fill="none" stroke="#FFFFFF" stroke-width="5" stroke-miterlimit="10" d="M-42.562,321.513
		c42.562-2,204.929,22.667,204.929,22.667"/>
</g>
<g id="順路">
	<path fill="none" stroke="#F4C31C" stroke-width="10" stroke-linecap="round" stroke-miterlimit="10" d="M110.182,305.079
		c0-18.935,28.765-58.46,39.984-69.829c15.759-15.972,34.264-60.163,28.542-77.334l2.225-17.997c0,0,43.021-12.696,49.587-14.009
		c6.567-1.313,31.96-25.392,31.96-25.392s45.111-23.014,75.059-37.751l8.813,14.043"/>
</g>
<g id="路線">
	<g>
		
			<line fill="none" stroke="#000000" stroke-width="7" stroke-miterlimit="10" x1="502.519" y1="305.406" x2="-52.861" y2="304.75"/>
		<g>
			
				<line fill="none" stroke="#FFFFFF" stroke-width="5" stroke-miterlimit="10" x1="502.519" y1="305.406" x2="496.519" y2="305.399"/>
			
				<line fill="none" stroke="#FFFFFF" stroke-width="5" stroke-miterlimit="10" stroke-dasharray="12.0751,12.0751" x1="484.443" y1="305.384" x2="-40.823" y2="304.765"/>
			
				<line fill="none" stroke="#FFFFFF" stroke-width="5" stroke-miterlimit="10" x1="-46.861" y1="304.757" x2="-52.861" y2="304.75"/>
		</g>
	</g>
</g>
<g id="ランドマーク">
	<rect x="57.439" y="296.841" fill="#FFFFFF" stroke="#000000" stroke-miterlimit="10" width="82" height="34.667"/>
	<polygon fill="#94C465" stroke="#FFFFFF" stroke-miterlimit="10" points="285.084,65.351 325.448,43.224 331.094,55.192 
		288.701,77.259 	"/>
	<polygon fill="#94C465" stroke="#FFFFFF" stroke-miterlimit="10" points="222.875,45.224 265.683,33.069 271.975,44.711 
		230.854,69.066 	"/>
	<polygon fill="#94C465" stroke="#FFFFFF" stroke-miterlimit="10" points="366.641,71.358 414.038,51.259 420.33,62.9 
		379.21,87.255 	"/>
	<g>
		<path fill="#FFFFFF" stroke="#000000" stroke-miterlimit="10" d="M194.44,147.496c0,3.094-2.508,5.602-5.602,5.602h-24.8
			c-3.094,0-5.602-2.508-5.602-5.602l0,0c0-3.094,2.508-5.602,5.602-5.602h24.8C191.932,141.894,194.44,144.402,194.44,147.496
			L194.44,147.496z"/>
		<circle fill="#FFF100" cx="176.537" cy="147.396" r="4.306"/>
		<circle fill="#E60012" cx="186.99" cy="147.396" r="4.306"/>
		<circle fill="#22AC38" cx="166.131" cy="147.396" r="4.306"/>
	</g>
	<g>
		<path fill="#FFFFFF" stroke="#000000" stroke-miterlimit="10" d="M195.932,197.285c0,3.094-2.508,5.602-5.602,5.602h-24.8
			c-3.094,0-5.602-2.508-5.602-5.602l0,0c0-3.094,2.508-5.602,5.602-5.602h24.8C193.423,191.683,195.932,194.191,195.932,197.285
			L195.932,197.285z"/>
		<circle fill="#FFF100" cx="178.029" cy="197.184" r="4.306"/>
		<circle fill="#E60012" cx="188.481" cy="197.184" r="4.306"/>
		<circle fill="#22AC38" cx="167.622" cy="197.184" r="4.306"/>
	</g>
	<g>
		<path fill="#FFFFFF" stroke="#000000" stroke-miterlimit="10" d="M135.122,276.209c0,3.094-2.508,5.602-5.602,5.602h-24.8
			c-3.094,0-5.602-2.508-5.602-5.602l0,0c0-3.094,2.508-5.603,5.602-5.603h24.8C132.613,270.607,135.122,273.116,135.122,276.209
			L135.122,276.209z"/>
		<circle fill="#FFF100" cx="117.219" cy="276.109" r="4.306"/>
		<circle fill="#E60012" cx="127.671" cy="276.109" r="4.306"/>
		<circle fill="#22AC38" cx="106.812" cy="276.109" r="4.306"/>
	</g>
	<g>
		<path fill="#FFFFFF" stroke="#000000" stroke-miterlimit="10" d="M190.024,277.004c0,3.094-2.508,5.603-5.602,5.603h-24.8
			c-3.094,0-5.602-2.509-5.602-5.603l0,0c0-3.094,2.508-5.603,5.602-5.603h24.8C187.516,271.402,190.024,273.911,190.024,277.004
			L190.024,277.004z"/>
		<circle fill="#FFF100" cx="172.122" cy="276.904" r="4.306"/>
		<circle fill="#E60012" cx="182.574" cy="276.904" r="4.306"/>
		<circle fill="#22AC38" cx="161.715" cy="276.904" r="4.306"/>
	</g>
	<circle display="none" cx="133.742" cy="279.233" r="4.5"/>
	<g>
		<rect x="295.769" y="90.357" fill="none" width="107.704" height="23.829"/>
		
			<text transform="matrix(1 0 0 1 315.9053 106.7139)" fill="#D70051" stroke="#F7F8F8" stroke-width="0.5" stroke-miterlimit="10" font-family="'KozGoPr6N-Bold-90ms-RKSJ-H'" font-size="18.5862">Mie Mie</text>
		<path fill="#D70051" stroke="#FFFFFF" stroke-miterlimit="10" d="M344.019,88.689c-7.283,0-14.655-2.619-14.655-7.624
			c0-5.422,8.632-8.035,16.465-7.572l20.501-36.761l3.746,2.089L350.38,74.137c4.673,1.084,8.293,3.42,8.293,6.928
			C358.673,86.071,351.301,88.689,344.019,88.689z M343.463,77.734c-6.378,0.125-9.811,2.39-9.811,3.331
			c0,0.968,3.633,3.335,10.366,3.335s10.365-2.367,10.365-3.335c0-0.744-2.145-2.314-6.193-3.002l-1.466,2.629l-3.746-2.089
			L343.463,77.734z M377.116,66.328c-4.514,0-9.856-0.5-16.218-1.69l-2.889-0.541l15.68-29.047l1.876,3.551
			c5.36,10.15,11.119,15.545,24.707,13.093l5.324-0.961l-3.22,4.348C399.27,59.277,394.046,66.327,377.116,66.328z M364.595,60.928
			c18.415,2.965,26.533-0.569,30.838-4.398c-11.296,0.372-17.34-5.371-21.718-12.498L364.595,60.928z"/>
	</g>
</g>
<g id="テキスト">
	<rect x="60.105" y="306.178" fill="none" width="74.969" height="20.333"/>
	<text transform="matrix(1 0 0 1 63.5981 320.2603)"><tspan x="0" y="0" font-family="'KozGoPr6N-Medium-90ms-RKSJ-H'" font-size="16">J</tspan><tspan x="6.464" y="0" font-family="'KozGoPr6N-Medium-90ms-RKSJ-H'" font-size="16" letter-spacing="4">R</tspan><tspan x="19.984" y="0" font-family="'KozGoPr6N-Medium-90ms-RKSJ-H'" font-size="16">目黒駅</tspan></text>
	
		<rect x="94.826" y="127.127" transform="matrix(0.9272 -0.3746 0.3746 0.9272 -41.7232 57.6103)" fill="none" width="65" height="18"/>
	
		<text transform="matrix(0.9272 -0.3746 0.3746 0.9272 111.2295 144.3784)" font-family="'KozGoPr6N-Medium-90ms-RKSJ-H'" font-size="12">目黒川</text>
	<rect x="94.075" y="286.848" fill="none" width="70.333" height="12"/>
	<text transform="matrix(1 0 0 1 106.7422 291.2485)" display="none" font-family="'KozGoPr6N-Regular-90ms-RKSJ-H'" font-size="5">スターバックス本社</text>
</g>
<g id="レイヤー_2">
	<rect fill="none" stroke="#000000" stroke-width="0.9813" stroke-miterlimit="10" width="480" height="395.208"/>
</g>
</svg>
