<?xml version="1.0" encoding="utf-8"?>
<!-- Generator: Adobe Illustrator 16.0.0, SVG Export Plug-In . SVG Version: 6.00 Build 0)  -->
<!DOCTYPE svg PUBLIC "-//W3C//DTD SVG 1.1//EN" "http://www.w3.org/Graphics/SVG/1.1/DTD/svg11.dtd">
<svg version="1.1" xmlns="http://www.w3.org/2000/svg" xmlns:xlink="http://www.w3.org/1999/xlink" x="0px" y="0px" width="800px"
	 height="600px" viewBox="0 0 800 600" enable-background="new 0 0 800 600" xml:space="preserve">
<g id="レイヤー_1" display="none">
</g>
<g id="レイヤー_3" display="none" opacity="0.3">
	<rect x="49.055" y="63" display="inline" width="616" height="477"/>
</g>
<g id="レイヤー_6">
	<rect x="181.843" y="160.902" display="none" fill="#FFFFFF" width="321.206" height="264.464"/>
</g>
<g id="道">
</g>
<g id="順路">
</g>
<g id="路線">
</g>
<g id="ランドマーク">
	<circle display="none" cx="241.359" cy="385.385" r="4.5"/>
</g>
<g id="テキスト">
	<rect x="201.692" y="393" fill="none" width="70.333" height="12"/>
	<text transform="matrix(1 0 0 1 214.3589 397.4004)" display="none" font-family="'KozGoPr6N-Regular-90ms-RKSJ-H'" font-size="5">スターバックス本社</text>
</g>
<g id="レイヤー_2">
	<g>
		<defs>
			<rect id="SVGID_1_" x="107.617" y="106.152" width="480" height="395.208"/>
		</defs>
		<clipPath id="SVGID_2_">
			<use xlink:href="#SVGID_1_"  overflow="visible"/>
		</clipPath>
		<path clip-path="url(#SVGID_2_)" fill="none" stroke="#2EA7E0" stroke-width="17" stroke-miterlimit="10" d="M71.055,280.333
			l56.939-6.244c22.328-3.94,124.116-42.685,144.016-49.909c19.126-6.942,17.671-8.379,184.332-104.415
			C471.555,111,514.222,84.5,514.222,84.5"/>
		<path clip-path="url(#SVGID_2_)" fill="none" stroke="#FFFFFF" stroke-width="15" stroke-miterlimit="10" d="M249.331,512.5
			c8.275-18.5,12.725-29,31.017-72.266c2.608-6.169,12.478-151.697,9.85-162.205c-1.313-5.256-10.022-32.369-18.481-61.197
			c-8.45-28.8-16.196-59.333-16.979-71.456c-1.015-15.71,5.11-67.158,5.11-67.158"/>
		<path clip-path="url(#SVGID_2_)" fill="none" stroke="#FFFFFF" stroke-width="15" stroke-miterlimit="10" d="M284.982,260.896
			c5.722,17.17-14.375,70.983-27.2,80.506c-12.825,9.521-43.104,63.371-43.104,87.997L234.943,545"/>
		<path clip-path="url(#SVGID_2_)" fill="none" stroke="#FFFFFF" stroke-width="5" stroke-miterlimit="10" d="M627.057,280.333
			l-69.939,47.605c-15.605,12.041-70.779,32.59-138.951,47.855c-54.523,12.211-117.338,19.877-174.918,19.443
			c-31.526-0.237-190.193,0.939-194.193,0.018"/>
		<path clip-path="url(#SVGID_2_)" fill="none" stroke="#FFFFFF" stroke-width="5" stroke-miterlimit="10" d="M288.549,332.774
			c0,0,7.813-9.349,15.94-11.895c8.127-2.544,54.751-5.513,70.577-5.089c15.826,0.425,75.709-54.404,78.063-52.65
			c2.353,1.754-5.026-8-5.026-8l12.939-31.808l13.688-12.723"/>
		<path clip-path="url(#SVGID_2_)" fill="none" stroke="#FFFFFF" stroke-width="5" stroke-miterlimit="10" d="M638.389,162.333
			L506.69,260.896c-1.313-2.688-18.826-41.092-31.96-50.285c-13.134-9.194-49.033-74.426-51.223-87.56l-9.802-44.832"/>
		<path clip-path="url(#SVGID_2_)" fill="none" stroke="#FFFFFF" stroke-width="15" stroke-miterlimit="10" d="M444.262,166.977
			c-29.948,14.738-74.166,39.693-74.166,39.693s-25.393,24.078-31.96,25.392c-6.566,1.313-49.587,14.009-49.587,14.009l-3.222,9.194
			l-2.277-0.899"/>
		<polyline clip-path="url(#SVGID_2_)" fill="none" stroke="#FFFFFF" stroke-width="5" stroke-miterlimit="10" points="
			393.901,193.47 423.507,257.016 423.507,264.067 435.423,286.463 467.644,363.227 		"/>
		
			<line clip-path="url(#SVGID_2_)" fill="none" stroke="#FFFFFF" stroke-width="5" stroke-miterlimit="10" x1="366.128" y1="382.947" x2="361.362" y2="315.465"/>
		
			<line clip-path="url(#SVGID_2_)" fill="none" stroke="#FFFFFF" stroke-width="5" stroke-miterlimit="10" x1="395.634" y1="306.967" x2="400.673" y2="378.754"/>
		<polyline clip-path="url(#SVGID_2_)" fill="none" stroke="#FFFFFF" stroke-width="5" stroke-miterlimit="10" points="
			377.102,315.244 361.362,274.09 363.745,264.067 348.348,225.677 		"/>
		<polyline clip-path="url(#SVGID_2_)" fill="none" stroke="#FFFFFF" stroke-width="5" stroke-miterlimit="10" points="
			307.3,240.594 400.673,275.95 405.121,266.647 423.507,258.272 		"/>
		<polyline clip-path="url(#SVGID_2_)" fill="none" stroke="#FFFFFF" stroke-width="5" stroke-miterlimit="10" points="
			65.055,271.692 132.555,264 271.716,216.833 424.959,128.011 471.055,98.641 		"/>
		<polyline clip-path="url(#SVGID_2_)" fill="none" stroke="#FFFFFF" stroke-width="5" stroke-miterlimit="10" points="
			71.055,292.5 133.055,284 276.989,234.254 434.153,146.159 519.555,91.5 		"/>
		
			<line clip-path="url(#SVGID_2_)" fill="none" stroke="#FFFFFF" stroke-width="5" stroke-miterlimit="10" x1="434.153" y1="96.336" x2="97.055" y2="150.375"/>
		<path clip-path="url(#SVGID_2_)" fill="none" stroke="#FFFFFF" stroke-width="5" stroke-miterlimit="10" d="M65.055,427.665
			c42.562-2,204.929,22.667,204.929,22.667"/>
		
			<path clip-path="url(#SVGID_2_)" fill="none" stroke="#F4C31C" stroke-width="10" stroke-linecap="round" stroke-miterlimit="10" d="
			M217.798,411.23c0-18.935,28.765-58.46,39.984-69.829c15.759-15.972,34.264-60.163,28.542-77.334l2.225-17.997
			c0,0,43.021-12.696,49.587-14.009c6.567-1.313,31.96-25.392,31.96-25.392s45.111-23.014,75.059-37.751l8.813,14.043"/>
		<g clip-path="url(#SVGID_2_)">
			
				<line fill="none" stroke="#000000" stroke-width="7" stroke-miterlimit="10" x1="610.135" y1="411.558" x2="54.756" y2="410.902"/>
			<g>
				
					<line fill="none" stroke="#FFFFFF" stroke-width="5" stroke-miterlimit="10" x1="610.135" y1="411.558" x2="604.135" y2="411.551"/>
				
					<line fill="none" stroke="#FFFFFF" stroke-width="5" stroke-miterlimit="10" stroke-dasharray="12.0751,12.0751" x1="592.06" y1="411.536" x2="66.793" y2="410.917"/>
				
					<line fill="none" stroke="#FFFFFF" stroke-width="5" stroke-miterlimit="10" x1="60.756" y1="410.909" x2="54.756" y2="410.902"/>
			</g>
		</g>
		
			<rect x="165.056" y="402.993" clip-path="url(#SVGID_2_)" fill="#FFFFFF" stroke="#000000" stroke-miterlimit="10" width="82" height="34.667"/>
		<polygon clip-path="url(#SVGID_2_)" fill="#94C465" stroke="#FFFFFF" stroke-miterlimit="10" points="392.701,171.503 
			433.065,149.375 438.71,161.344 396.317,183.411 		"/>
		<polygon clip-path="url(#SVGID_2_)" fill="#94C465" stroke="#FFFFFF" stroke-miterlimit="10" points="330.491,151.375 
			373.299,139.221 379.591,150.863 338.471,175.218 		"/>
		<polygon clip-path="url(#SVGID_2_)" fill="#94C465" stroke="#FFFFFF" stroke-miterlimit="10" points="474.257,177.51 
			521.655,157.411 527.947,169.052 486.827,193.407 		"/>
		<g clip-path="url(#SVGID_2_)">
			<path fill="#FFFFFF" stroke="#000000" stroke-miterlimit="10" d="M302.057,253.648c0,3.094-2.508,5.602-5.602,5.602h-24.8
				c-3.094,0-5.602-2.508-5.602-5.602l0,0c0-3.094,2.508-5.602,5.602-5.602h24.8C299.548,248.046,302.057,250.554,302.057,253.648
				L302.057,253.648z"/>
			<circle fill="#FFF100" cx="284.154" cy="253.548" r="4.306"/>
			<circle fill="#E60012" cx="294.606" cy="253.548" r="4.306"/>
			<circle fill="#22AC38" cx="273.747" cy="253.548" r="4.306"/>
		</g>
		<g clip-path="url(#SVGID_2_)">
			<path fill="#FFFFFF" stroke="#000000" stroke-miterlimit="10" d="M303.548,303.437c0,3.094-2.508,5.602-5.602,5.602h-24.8
				c-3.094,0-5.602-2.508-5.602-5.602l0,0c0-3.094,2.508-5.602,5.602-5.602h24.8C301.04,297.834,303.548,300.343,303.548,303.437
				L303.548,303.437z"/>
			<circle fill="#FFF100" cx="285.646" cy="303.336" r="4.306"/>
			<circle fill="#E60012" cx="296.098" cy="303.336" r="4.306"/>
			<circle fill="#22AC38" cx="275.239" cy="303.336" r="4.306"/>
		</g>
		<g clip-path="url(#SVGID_2_)">
			<path fill="#FFFFFF" stroke="#000000" stroke-miterlimit="10" d="M242.738,382.361c0,3.094-2.508,5.602-5.602,5.602h-24.8
				c-3.094,0-5.602-2.508-5.602-5.602l0,0c0-3.094,2.508-5.603,5.602-5.603h24.8C240.23,376.759,242.738,379.268,242.738,382.361
				L242.738,382.361z"/>
			<circle fill="#FFF100" cx="224.835" cy="382.261" r="4.306"/>
			<circle fill="#E60012" cx="235.288" cy="382.261" r="4.306"/>
			<circle fill="#22AC38" cx="214.429" cy="382.261" r="4.306"/>
		</g>
		<g clip-path="url(#SVGID_2_)">
			<path fill="#FFFFFF" stroke="#000000" stroke-miterlimit="10" d="M297.641,383.156c0,3.094-2.508,5.603-5.602,5.603h-24.8
				c-3.094,0-5.602-2.509-5.602-5.603l0,0c0-3.094,2.508-5.603,5.602-5.603h24.8C295.133,377.554,297.641,380.063,297.641,383.156
				L297.641,383.156z"/>
			<circle fill="#FFF100" cx="279.738" cy="383.056" r="4.306"/>
			<circle fill="#E60012" cx="290.191" cy="383.056" r="4.306"/>
			<circle fill="#22AC38" cx="269.332" cy="383.056" r="4.306"/>
		</g>
		<g clip-path="url(#SVGID_2_)">
			<rect x="403.385" y="196.509" fill="none" width="107.704" height="23.829"/>
			
				<text transform="matrix(1 0 0 1 423.522 212.8657)" fill="#D70051" stroke="#F7F8F8" stroke-width="0.5" stroke-miterlimit="10" font-family="'KozGoPr6N-Bold-90ms-RKSJ-H'" font-size="18.5862">Mie Mie</text>
			<path fill="#D70051" stroke="#FFFFFF" stroke-miterlimit="10" d="M451.635,194.841c-7.283,0-14.655-2.619-14.655-7.624
				c0-5.422,8.632-8.035,16.465-7.572l20.501-36.761l3.746,2.089l-19.695,35.316c4.673,1.084,8.293,3.42,8.293,6.928
				C466.29,192.223,458.917,194.841,451.635,194.841z M451.08,183.886c-6.378,0.125-9.811,2.39-9.811,3.331
				c0,0.968,3.633,3.335,10.366,3.335S462,188.185,462,187.217c0-0.744-2.145-2.314-6.193-3.002l-1.466,2.629l-3.746-2.089
				L451.08,183.886z M484.733,172.479c-4.514,0-9.856-0.5-16.218-1.69l-2.889-0.541l15.68-29.047l1.876,3.551
				c5.36,10.15,11.119,15.545,24.707,13.093l5.324-0.961l-3.22,4.348C506.886,165.429,501.663,172.479,484.733,172.479z
				 M472.211,167.08c18.415,2.965,26.533-0.569,30.838-4.398c-11.296,0.372-17.34-5.371-21.718-12.498L472.211,167.08z"/>
		</g>
		<g clip-path="url(#SVGID_2_)">
			<rect x="167.722" y="412.33" fill="none" width="74.969" height="20.333"/>
			<text transform="matrix(1 0 0 1 171.2148 426.4121)"><tspan x="0" y="0" font-family="'KozGoPr6N-Medium-90ms-RKSJ-H'" font-size="16">J</tspan><tspan x="6.464" y="0" font-family="'KozGoPr6N-Medium-90ms-RKSJ-H'" font-size="16" letter-spacing="4">R</tspan><tspan x="19.984" y="0" font-family="'KozGoPr6N-Medium-90ms-RKSJ-H'" font-size="16">目黒駅</tspan></text>
		</g>
		<g clip-path="url(#SVGID_2_)">
			
				<rect x="202.443" y="233.279" transform="matrix(0.9272 -0.3746 0.3746 0.9272 -73.6524 105.6544)" fill="none" width="65" height="18"/>
			
				<text transform="matrix(0.9272 -0.3746 0.3746 0.9272 218.8462 250.5303)" font-family="'KozGoPr6N-Medium-90ms-RKSJ-H'" font-size="12">目黒川</text>
		</g>
	</g>
	
		<rect x="107.617" y="106.152" fill="none" stroke="#000000" stroke-width="0.9813" stroke-miterlimit="10" width="480" height="395.208"/>
</g>
</svg>
